<svg width="24" height="16" viewBox="0 0 24 16" fill="none" xmlns="http://www.w3.org/2000/svg">
<path opacity="0.7" d="M7.34565 15.6834L0.23219 8.59103C0.147757 8.5066 0.0880915 8.41513 0.0531926 8.31662C0.0177309 8.21812 0 8.11258 0 8C0 7.88742 0.0177309 7.78188 0.0531926 7.68338C0.0880915 7.58487 0.147757 7.4934 0.23219 7.40897L7.34565 0.295514C7.54265 0.0985048 7.78892 0 8.08443 0C8.37995 0 8.63324 0.105541 8.84433 0.316623C9.05541 0.527704 9.16095 0.773967 9.16095 1.05541C9.16095 1.33685 9.05541 1.58311 8.84433 1.7942L2.63852 8L8.84433 14.2058C9.04134 14.4028 9.13984 14.6454 9.13984 14.9336C9.13984 15.2224 9.0343 15.4723 8.82322 15.6834C8.61214 15.8945 8.36587 16 8.08443 16C7.80299 16 7.55673 15.8945 7.34565 15.6834Z" fill="#855700"/>
<path opacity="0.7" d="M14.6557 13.7625L9.32063 8.44327C9.2573 8.37995 9.21255 8.31135 9.18638 8.23747C9.15978 8.16359 9.14648 8.08443 9.14648 8C9.14648 7.91557 9.15978 7.83641 9.18638 7.76253C9.21255 7.68865 9.2573 7.62005 9.32063 7.55673L14.6557 2.22164C14.8035 2.07388 14.9882 2 15.2098 2C15.4314 2 15.6214 2.07916 15.7797 2.23747C15.938 2.39578 16.0172 2.58047 16.0172 2.79156C16.0172 3.00264 15.938 3.18734 15.7797 3.34565L11.1254 8L15.7797 12.6544C15.9275 12.8021 16.0014 12.9841 16.0014 13.2002C16.0014 13.4168 15.9222 13.6042 15.7639 13.7625C15.6056 13.9208 15.4209 14 15.2098 14C14.9987 14 14.814 13.9208 14.6557 13.7625Z" fill="#C08005"/>
<path opacity="0.7" d="M22.1129 12.302L18.13 8.33094C18.0827 8.28366 18.0493 8.23245 18.0298 8.1773C18.0099 8.12214 18 8.06305 18 8.00002C18 7.93698 18.0099 7.87789 18.0298 7.82274C18.0493 7.76758 18.0827 7.71637 18.13 7.66909L22.1129 3.68621C22.2232 3.57591 22.3611 3.52075 22.5265 3.52075C22.692 3.52075 22.8338 3.57985 22.952 3.69803C23.0702 3.81622 23.1293 3.9541 23.1293 4.11168C23.1293 4.26927 23.0702 4.40715 22.952 4.52534L19.4773 8.00002L22.952 11.4747C23.0623 11.585 23.1175 11.7208 23.1175 11.8822C23.1175 12.0439 23.0584 12.1838 22.9402 12.302C22.822 12.4202 22.6841 12.4793 22.5265 12.4793C22.369 12.4793 22.2311 12.4202 22.1129 12.302Z" fill="#D8A035"/>
</svg>
