<svg width="24" height="16" viewBox="0 0 24 16" fill="none" xmlns="http://www.w3.org/2000/svg">
<path opacity="0.7" d="M15.7833 15.6834L22.8967 8.59103C22.9811 8.5066 23.0408 8.41513 23.0757 8.31662C23.1112 8.21812 23.1289 8.11258 23.1289 8C23.1289 7.88742 23.1112 7.78188 23.0757 7.68338C23.0408 7.58487 22.9811 7.4934 22.8967 7.40897L15.7833 0.295514C15.5863 0.0985048 15.34 0 15.0445 0C14.749 0 14.4957 0.105541 14.2846 0.316623C14.0735 0.527704 13.968 0.773967 13.968 1.05541C13.968 1.33685 14.0735 1.58311 14.2846 1.7942L20.4904 8L14.2846 14.2058C14.0876 14.4028 13.9891 14.6454 13.9891 14.9336C13.9891 15.2224 14.0946 15.4723 14.3057 15.6834C14.5168 15.8945 14.763 16 15.0445 16C15.3259 16 15.5722 15.8945 15.7833 15.6834Z" fill="#855700"/>
<path opacity="0.7" d="M8.47514 13.7625L13.8102 8.44327C13.8736 8.37995 13.9183 8.31135 13.9445 8.23747C13.9711 8.16359 13.9844 8.08443 13.9844 8C13.9844 7.91557 13.9711 7.83641 13.9445 7.76253C13.9183 7.68865 13.8736 7.62005 13.8102 7.55673L8.47514 2.22164C8.32738 2.07388 8.14269 2 7.92105 2C7.69942 2 7.50944 2.07916 7.35113 2.23747C7.19282 2.39578 7.11366 2.58047 7.11366 2.79156C7.11366 3.00264 7.19282 3.18734 7.35113 3.34565L12.0055 8L7.35113 12.6544C7.20337 12.8021 7.12949 12.9841 7.12949 13.2002C7.12949 13.4168 7.20865 13.6042 7.36696 13.7625C7.52527 13.9208 7.70997 14 7.92105 14C8.13213 14 8.31683 13.9208 8.47514 13.7625Z" fill="#C08005"/>
<path opacity="0.7" d="M1.01602 12.302L4.9989 8.33094C5.04618 8.28366 5.07958 8.23245 5.09912 8.1773C5.11898 8.12214 5.12891 8.06305 5.12891 8.00002C5.12891 7.93698 5.11898 7.87789 5.09912 7.82274C5.07958 7.76758 5.04618 7.71637 4.9989 7.66909L1.01602 3.68621C0.905713 3.57591 0.767829 3.52075 0.602368 3.52075C0.436907 3.52075 0.295084 3.57985 0.176897 3.69803C0.0587106 3.81622 -0.000382423 3.9541 -0.000382423 4.11168C-0.000382423 4.26927 0.0587106 4.40715 0.176897 4.52534L3.65158 8.00002L0.176897 11.4747C0.0665898 11.585 0.011436 11.7208 0.011436 11.8822C0.011436 12.0439 0.070529 12.1838 0.188715 12.302C0.306902 12.4202 0.444786 12.4793 0.602368 12.4793C0.75995 12.4793 0.897834 12.4202 1.01602 12.302Z" fill="#D8A035"/>
</svg>
